<svg xmlns="http://www.w3.org/2000/svg" width="50" height="50" viewBox="0 0 490.7 490.7"><path xmlns="http://www.w3.org/2000/svg" d="M245.3 0C109.8 0 0 109.8 0 245.3s109.8 245.3 245.3 245.3 245.3-109.8 245.3-245.3C490.5 109.9 380.8 0.2 245.3 0z" data-original="#f44336" fill="#36f4b6"/><path xmlns="http://www.w3.org/2000/svg" d="M382.6 154.8c-1.9-3.4-5.4-5.4-9.3-5.4h-256c-5.9 0-10.7 4.8-10.7 10.7 0 1.9 0.5 3.8 1.5 5.5l128 213.3c3 5 9.6 6.7 14.6 3.6 1.5-0.9 2.7-2.1 3.6-3.6l128-213.3C384.4 162.2 384.5 158.1 382.6 154.8z" data-original="#fafafa" fill="#fff"/></svg>