<svg xmlns="http://www.w3.org/2000/svg" width="50" height="50" viewBox="0 0 30.1 30.1"><style>.a{fill:#e70404;}</style><g xmlns="http://www.w3.org/2000/svg"><path d="M19 10.7h-7.9c-0.2 0-0.3 0.1-0.3 0.3v8c0 0.2 0.2 0.3 0.3 0.3h7.9c0.2 0 0.3-0.2 0.3-0.3V11C19.3 10.8 19.2 10.7 19 10.7z" data-original="#030104" class="a"/><path d="M15 0C6.7 0 0 6.7 0 15S6.7 30.1 15 30.1c8.3 0 15-6.7 15-15S23.3 0 15 0zM15 27.5c-6.9 0-12.5-5.6-12.5-12.5 0-6.9 5.6-12.5 12.5-12.5 6.9 0 12.5 5.6 12.5 12.5C27.5 21.9 21.9 27.5 15 27.5z" data-original="#030104" class="a"/></g></svg>
