<svg xmlns="http://www.w3.org/2000/svg" width="50" height="50" viewBox="0 0 490.7 490.7"><path xmlns="http://www.w3.org/2000/svg" d="M245.3 0C109.8 0 0 109.8 0 245.3s109.8 245.3 245.3 245.3 245.3-109.8 245.3-245.3C490.5 109.9 380.8 0.2 245.3 0z" data-original="#f44336" fill="#36f4b6"/><path xmlns="http://www.w3.org/2000/svg" d="M254.5 111.9c-3.4-5-10.3-6.4-15.3-2.9 -1.2 0.8-2.1 1.8-2.9 2.9l-128 213.3c-3 5.1-1.4 11.6 3.7 14.6 1.7 1 3.5 1.5 5.5 1.5h256c5.9 0 10.7-4.8 10.7-10.7 0-1.9-0.5-3.8-1.5-5.5L254.5 111.9z" data-original="#fafafa" fill="#fafafa"/></svg>
